<?xml version="1.0" standalone="no"?>
<!DOCTYPE svg PUBLIC "-//W3C//DTD SVG 20010904//EN"
 "http://www.w3.org/TR/2001/REC-SVG-20010904/DTD/svg10.dtd">
<svg version="1.0" xmlns="http://www.w3.org/2000/svg"
 width="197.000000pt" height="197.000000pt" viewBox="0 0 197.000000 197.000000"
 preserveAspectRatio="xMidYMid meet">
<metadata>
Created by potrace 1.14, written by Peter Selinger 2001-2017
</metadata>
<g transform="translate(0.000000,197.000000) scale(0.100000,-0.100000)"
fill="#000000" stroke="none">
<path d="M238 1858 c-2 -7 -4 -377 -3 -823 l1 -810 669 -3 c369 -1 679 0 691
3 l20 4 0 818 -1 818 -245 0 -245 0 -2 -170 c-1 -93 -2 -177 -2 -186 -1 -14
-25 -16 -196 -15 l-195 0 -2 185 -3 186 -241 3 c-188 2 -243 0 -246 -10z m144
-30 c-9 -9 -15 -9 -24 0 -9 9 -7 12 12 12 19 0 21 -3 12 -12z m113 2 c-3 -5
-12 -7 -20 -3 -21 7 -19 13 6 13 11 0 18 -4 14 -10z m116 1 c-8 -5 -20 -7 -28
-4 -21 8 -15 13 15 13 20 0 23 -3 13 -9z m634 -18 c-12 -23 -11 -32 5 -76 33
-86 50 -86 84 1 20 53 20 66 0 86 -14 15 -11 16 29 16 l45 0 -10 -28 c-9 -24
-7 -39 12 -86 30 -71 46 -70 77 8 22 54 23 60 8 82 l-15 24 52 0 c41 -1 49 -3
36 -11 -23 -13 -23 -47 2 -111 26 -69 26 -119 0 -136 -26 -16 -26 -57 0 -113
18 -41 20 -67 20 -371 l0 -328 -48 0 c-48 0 -81 14 -177 73 -61 39 -110 44
-169 19 l-46 -21 0 293 c0 271 2 297 20 337 25 57 26 95 0 111 -14 9 -20 24
-20 50 0 21 9 60 20 88 23 58 25 91 8 108 -9 9 -2 12 34 12 l47 0 -14 -27z
m-901 -9 c20 -20 20 -38 0 -55 -24 -20 -43 -19 -58 3 -31 44 20 90 58 52z
m116 -4 c25 -47 -24 -86 -61 -49 -19 19 -18 28 4 57 15 19 45 14 57 -8z m105
7 c39 -29 -6 -89 -49 -65 -29 16 -14 78 19 78 6 0 19 -6 30 -13z m113 1 c20
-20 14 -58 -10 -67 -31 -11 -47 -4 -54 25 -11 42 34 72 64 42z m640 -11 c4
-20 -16 -77 -27 -77 -4 0 -13 16 -20 35 -10 29 -10 39 0 51 16 19 43 14 47 -9z
m152 8 c9 -11 9 -22 0 -50 -6 -19 -15 -35 -19 -35 -10 0 -31 46 -31 69 0 33
28 42 50 16z m-307 -36 c-8 -29 -13 -23 -13 14 0 22 3 28 9 18 5 -7 6 -22 4
-32z m427 9 c0 -23 -3 -29 -9 -19 -5 7 -7 21 -6 30 5 22 4 21 10 21 3 0 5 -15
5 -32z m-1210 -58 c0 -5 -2 -10 -4 -10 -3 0 -8 5 -11 10 -3 6 -1 10 4 10 6 0
11 -4 11 -10z m110 0 c0 -5 -2 -10 -4 -10 -3 0 -8 5 -11 10 -3 6 -1 10 4 10 6
0 11 -4 11 -10z m120 6 c0 -11 -19 -15 -25 -6 -3 5 1 10 9 10 9 0 16 -2 16 -4z
m-258 -40 c27 -41 -34 -82 -68 -45 -16 17 -16 20 0 44 13 20 22 24 39 19 12
-4 25 -12 29 -18z m103 11 c23 -18 14 -62 -16 -70 -24 -6 -63 27 -53 46 23 40
38 46 69 24z m110 0 c39 -29 -6 -89 -49 -65 -29 16 -14 78 19 78 6 0 19 -6 30
-13z m106 3 c27 -15 25 -58 -3 -69 -31 -12 -58 4 -58 34 0 13 8 29 18 34 21
13 20 13 43 1z m-291 -90 c0 -5 -4 -10 -10 -10 -5 0 -10 5 -10 10 0 6 5 10 10
10 6 0 10 -4 10 -10z m114 2 c3 -5 -1 -9 -9 -9 -8 0 -15 4 -15 9 0 4 4 8 9 8
6 0 12 -4 15 -8z m110 0 c3 -5 -1 -9 -9 -9 -8 0 -15 4 -15 9 0 4 4 8 9 8 6 0
12 -4 15 -8z m-226 -80 l3 -43 -60 3 -61 3 0 36 c0 19 2 38 5 41 3 2 29 4 57
4 l53 -1 3 -43z m177 3 l0 -40 -72 -1 -73 -1 0 42 0 42 73 -1 72 -1 0 -40z
m146 34 c1 -5 1 -20 1 -34 0 -14 0 -30 -1 -35 -1 -6 -25 -10 -60 -9 l-58 2 2
41 c1 23 3 41 4 42 8 6 111 0 112 -7z m461 -45 c-6 -35 -12 -29 -12 14 0 23 3
32 9 24 4 -7 6 -24 3 -38z m428 4 c0 -37 -7 -34 -14 5 -2 15 0 27 5 27 5 0 9
-14 9 -32z m-1122 -106 l3 -43 -103 3 -103 3 -3 40 -3 40 103 0 103 0 3 -43z
m227 36 c6 -4 10 -22 10 -40 l-1 -33 -99 -3 c-106 -3 -116 1 -110 47 2 14 4
28 4 32 1 7 184 5 196 -3z m183 -69 l34 -76 -22 -51 c-20 -47 -40 -68 -40 -43
0 5 -13 38 -29 73 -47 104 -71 160 -71 169 0 4 21 7 47 6 l47 -2 34 -76z m94
75 c3 -2 0 -17 -7 -32 -8 -15 -19 -40 -26 -57 l-12 -30 -23 50 c-12 28 -23 55
-23 61 -1 10 75 17 91 8z m103 -74 c-18 -41 -42 -99 -55 -127 -12 -29 -26 -53
-29 -53 -4 0 -17 23 -28 51 l-22 50 20 47 c50 115 46 111 98 109 l48 -2 -32
-75z m-281 -104 c31 -71 56 -129 54 -130 -32 -18 -84 -66 -99 -90 l-19 -31 0
194 c0 107 2 192 4 190 2 -2 29 -62 60 -133z m329 -63 c-2 -210 -1 -204 -17
-168 -13 29 -71 88 -95 96 -8 3 9 50 44 126 30 67 55 128 56 135 0 7 3 5 7 -4
4 -10 6 -93 5 -185z m-745 89 l3 -42 -60 0 -61 0 0 39 c0 44 5 47 69 46 l46 0
3 -43z m173 38 c1 -3 3 -22 4 -42 l2 -38 -74 0 -73 0 0 38 c0 21 2 41 4 43 7
6 136 5 137 -1z m148 -15 c4 -11 6 -26 5 -32 -1 -7 -2 -18 -3 -23 -1 -7 -24
-10 -58 -8 l-58 3 -1 40 -1 41 55 -1 c46 0 56 -4 61 -20z m251 -111 c11 -26
20 -49 20 -53 0 -3 -19 -5 -42 -5 -24 1 -43 5 -43 10 1 12 36 94 41 94 2 0 12
-21 24 -46z m-492 17 c6 -1 12 -7 12 -14 0 -18 -49 -20 -66 -3 -20 20 -18 23
14 20 15 -1 33 -2 40 -3z m122 1 c0 -13 -31 -30 -53 -29 -24 2 -35 16 -23 28
6 5 76 6 76 1z m-293 -8 c-3 -3 -12 -4 -19 -1 -8 3 -5 6 6 6 11 1 17 -2 13 -5z
m67 -26 c-15 -7 -28 -7 -40 1 -16 9 -12 10 21 10 35 0 37 -2 19 -11z m300 0
c-15 -7 -28 -7 -40 1 -16 9 -12 10 21 10 35 0 37 -2 19 -11z m-316 -30 c28 1
33 -1 27 -16 -16 -38 -17 -53 -5 -67 10 -12 10 -15 0 -15 -9 0 -11 -11 -7 -35
5 -33 4 -35 -24 -35 -17 0 -39 -4 -49 -10 -17 -9 -18 -3 -19 96 l-2 105 23
-12 c12 -7 38 -12 56 -11z m122 -3 c0 -22 -37 -55 -60 -55 -47 0 1 64 53 69 4
1 7 -6 7 -14z m113 -17 c21 -25 22 -38 3 -38 -28 0 -47 13 -62 43 l-16 30 29
-7 c15 -4 36 -16 46 -28z m128 15 c0 -10 2 -55 3 -101 1 -71 -1 -82 -14 -76
-8 4 -32 9 -52 12 -35 4 -36 5 -25 29 9 21 8 27 -6 38 -16 12 -16 13 -1 19 16
6 15 25 -2 69 -4 12 3 15 31 15 20 0 39 3 42 6 12 11 23 6 24 -11z m324 -64
c32 -22 75 -88 75 -116 0 -6 -21 -14 -47 -18 -39 -5 -56 -15 -89 -50 l-41 -42
-28 34 c-29 37 -78 63 -120 63 -23 0 -25 3 -19 28 27 115 169 169 269 101z
m-555 -18 l0 -38 -34 16 -34 16 29 14 c16 8 29 18 29 23 0 4 2 8 5 8 3 0 5
-17 5 -39z m81 4 c19 -6 17 -8 -13 -24 -18 -9 -35 -13 -38 -9 -5 6 -5 50 -1
66 1 2 8 -3 16 -12 8 -8 24 -18 36 -21z m-108 -67 c22 -26 22 -38 -3 -38 -24
0 -60 34 -60 56 0 21 39 10 63 -18z m147 23 c0 -21 -43 -61 -66 -61 -21 0 -23
2 -12 25 13 28 78 59 78 36z m-223 -78 c-9 -8 -49 -12 -65 -5 -14 5 -13 7 8
12 24 6 65 1 57 -7z m300 0 c-10 -10 -67 -11 -67 -1 0 4 17 8 37 8 20 0 33 -3
30 -7z m191 -56 c31 -29 52 -70 52 -102 0 -23 -3 -25 -22 -19 -37 11 -72 31
-90 51 -22 24 -50 91 -43 103 8 13 77 -9 103 -33z m-522 21 c30 0 32 -2 24
-18 -29 -55 12 -82 75 -50 l35 18 0 -59 0 -59 -105 0 -106 0 2 90 c1 85 3 90
21 84 11 -3 35 -6 54 -6z m124 2 c0 -17 -47 -60 -65 -60 -21 0 -19 26 5 50 21
21 60 27 60 10z m105 -15 c26 -25 32 -45 15 -45 -22 0 -59 24 -69 46 -9 21 -8
24 10 24 11 0 31 -11 44 -25z m140 -69 l0 -87 -105 3 -105 3 -1 50 c-1 62 3
70 24 52 25 -22 79 -28 93 -11 9 11 9 21 0 40 -6 14 -11 26 -11 28 0 1 16 3
36 4 20 1 39 4 42 7 18 18 26 -11 27 -89z m395 82 c0 -22 -44 -90 -70 -110
-14 -10 -40 -22 -59 -28 l-34 -9 6 42 c8 57 70 117 122 117 21 0 35 -5 35 -12z
m-267 -148 l42 -20 -72 0 -73 0 0 67 0 67 30 -48 c21 -32 44 -53 73 -66z m291
73 c-1 -15 -3 -34 -3 -41 -1 -15 -61 -42 -106 -49 l-30 -4 35 21 c40 24 89 79
90 98 0 7 4 11 8 8 4 -2 7 -17 6 -33z m230 -43 c20 -12 36 -23 36 -25 0 -1
-15 -1 -34 2 -37 5 -96 -18 -155 -62 -18 -14 -50 -29 -70 -35 -21 -6 -205 -10
-453 -10 l-418 0 0 25 c0 14 3 25 8 26 4 1 180 2 392 3 418 2 419 3 497 62 74
56 124 60 197 14z m42 -60 c14 -6 36 -18 48 -28 22 -17 21 -17 -29 -17 -46 -1
-102 -26 -125 -56 -3 -3 -21 -15 -40 -25 -33 -18 -66 -19 -512 -22 l-478 -3 2
26 c1 14 7 25 13 26 5 0 199 2 430 3 463 2 440 -1 544 70 56 38 96 45 147 26z
m194 -42 c0 -33 -8 -34 -60 -8 -57 29 -56 38 5 36 53 -1 55 -2 55 -28z m-57
-73 c53 -35 57 -41 57 -76 0 -22 -3 -39 -7 -40 -26 -3 -420 -4 -430 -1 -7 2
-13 15 -13 27 0 20 8 25 51 34 57 12 85 25 114 52 68 62 139 63 228 4z m47 15
c8 -5 12 -11 9 -14 -3 -3 -14 1 -25 9 -21 16 -8 20 16 5z m-889 -79 c16 -1 20
-34 6 -48 -11 -11 -410 -11 -424 0 -24 17 -15 45 15 49 22 2 346 2 403 -1z
m406 0 c22 -1 27 -21 11 -46 -5 -8 -316 -13 -370 -6 -12 1 -10 49 2 53 8 2
279 2 357 -1z m-424 -113 c-50 -84 -26 -76 -227 -74 l-181 1 -3 53 -4 52 217
0 217 0 -19 -32z m100 -70 c-14 -57 -26 -111 -29 -122 -2 -10 -5 -21 -8 -23
-9 -10 -161 -6 -159 4 1 5 25 47 53 94 94 152 91 149 131 149 l36 0 -24 -102z
m138 90 c1 -7 2 -62 3 -123 l1 -110 -30 -5 c-16 -3 -51 -3 -77 -2 -43 4 -46 5
-39 25 5 12 9 27 9 32 1 6 11 52 24 103 l22 92 43 0 c27 0 44 -5 44 -12z m141
-103 c15 -60 28 -116 28 -122 0 -9 -21 -13 -70 -13 l-70 0 0 126 0 125 42 -3
42 -3 28 -110z m86 83 c11 -18 43 -75 70 -125 40 -74 47 -93 34 -94 -53 -2
-124 0 -129 5 -4 3 -61 224 -63 244 0 1 15 2 34 2 28 0 38 -6 54 -32z m452
-22 l0 -54 -190 2 -190 1 -30 53 -30 52 220 0 220 0 0 -54z m-990 -87 c0 -5
-14 -31 -31 -59 -34 -56 -17 -51 -189 -51 -44 0 -89 0 -100 1 -17 0 -20 7 -20
53 0 30 2 56 5 59 9 9 335 6 335 -3z m990 -50 c0 -40 -4 -59 -12 -60 -7 0 -74
-1 -148 -1 l-135 -1 -32 54 c-18 29 -33 56 -33 59 0 3 81 7 180 7 l180 1 0
-59z"/>
<path d="M1202 1747 c-19 -23 -42 -85 -42 -113 0 -49 61 -72 93 -36 21 23 21
41 1 94 -23 58 -37 73 -52 55z m41 -124 c-8 -19 -50 -16 -55 5 -3 9 2 33 10
52 l15 35 17 -39 c10 -22 16 -45 13 -53z"/>
<path d="M1339 1714 c-30 -68 -32 -91 -9 -114 25 -25 54 -26 80 0 25 25 25 27
0 94 -28 73 -46 78 -71 20z m56 -56 c9 -41 -12 -65 -40 -44 -17 13 -18 17 -5
55 15 46 34 42 45 -11z"/>
<path d="M1506 1738 c-8 -13 -20 -44 -27 -70 -12 -42 -11 -49 6 -68 34 -37 95
-19 95 30 0 31 -32 114 -49 124 -5 4 -17 -4 -25 -16z m43 -75 c12 -43 8 -53
-24 -53 -30 0 -36 25 -16 67 17 38 27 35 40 -14z"/>
<path d="M1264 1592 c-29 -19 -32 -47 -13 -102 23 -66 35 -79 53 -60 15 17 46
93 46 115 0 36 -57 67 -86 47z m54 -45 c4 -20 -16 -77 -27 -77 -12 0 -32 67
-25 84 9 22 48 17 52 -7z"/>
<path d="M1410 1580 c-11 -11 -20 -27 -20 -35 0 -22 31 -98 46 -115 18 -19 30
-6 53 60 15 41 17 59 9 75 -22 40 -57 46 -88 15z m67 -26 c3 -9 -3 -34 -14
-56 l-19 -40 -13 40 c-8 22 -11 48 -8 56 8 21 46 21 54 0z"/>
<path d="M1180 1448 c-35 -72 -20 -128 35 -128 56 0 67 48 31 133 -21 48 -41
47 -66 -5z m60 -59 c8 -26 6 -31 -13 -38 -13 -5 -27 -5 -35 2 -12 10 -11 22
10 77 9 23 10 24 20 7 5 -10 14 -32 18 -48z"/>
<path d="M1350 1487 c0 -1 -9 -29 -20 -61 -19 -53 -20 -60 -5 -82 21 -32 69
-33 89 -1 17 26 17 35 -8 100 -13 33 -24 47 -37 47 -11 0 -19 -1 -19 -3z m47
-95 c3 -14 0 -29 -9 -38 -12 -12 -17 -12 -33 0 -18 13 -18 17 -5 56 13 39 15
40 27 23 8 -10 17 -29 20 -41z"/>
<path d="M1494 1453 c-36 -87 -25 -133 35 -133 34 0 51 17 51 51 0 37 -38 119
-55 119 -8 0 -22 -17 -31 -37z m55 -53 c10 -30 9 -37 -5 -47 -37 -27 -57 17
-32 72 13 29 20 24 37 -25z"/>
<path d="M1450 1302 c-33 -10 -40 -35 -40 -149 0 -90 3 -113 14 -113 11 0 13
22 12 107 -1 123 11 155 42 114 22 -27 39 -13 23 18 -12 22 -30 30 -51 23z"/>
<path d="M1226 1283 c-3 -3 -6 -31 -6 -60 0 -72 24 -68 28 5 2 47 -7 70 -22
55z"/>
<path d="M1540 1230 c0 -45 3 -61 13 -57 16 5 16 109 -1 115 -9 3 -12 -14 -12
-58z"/>
<path d="M1357 1273 c-4 -3 -7 -96 -7 -205 0 -153 3 -198 13 -198 9 0 12 45
12 199 0 190 -3 220 -18 204z"/>
<path d="M1176 1233 c-3 -3 -6 -75 -6 -160 0 -129 2 -153 15 -153 13 0 15 24
15 154 0 141 -5 177 -24 159z"/>
<path d="M1486 1159 c-9 -26 -1 -209 9 -209 13 0 19 200 6 213 -7 7 -12 6 -15
-4z"/>
<path d="M1252 1149 c-26 -10 -39 -36 -24 -51 7 -7 14 -3 22 12 19 36 35 17
40 -50 7 -87 30 -95 30 -10 0 88 -20 117 -68 99z"/>
<path d="M1540 1030 c0 -47 4 -80 10 -80 11 0 12 7 14 85 2 56 -2 75 -15 75
-5 0 -9 -36 -9 -80z"/>
<path d="M1220 1006 c0 -57 15 -75 26 -32 8 34 1 79 -13 84 -9 3 -13 -12 -13
-52z"/>
<path d="M1412 928 c4 -87 23 -95 24 -10 1 62 -3 82 -18 82 -5 0 -8 -32 -6
-72z"/>
<path d="M1296 973 c-13 -13 -6 -63 9 -63 10 0 15 10 15 29 0 30 -12 46 -24
34z"/>
<path d="M1481 880 c-1 -37 2 -50 13 -50 10 0 13 12 12 47 -2 64 -22 67 -25 3z"/>
<path d="M1540 836 c0 -31 18 -63 21 -37 5 42 2 65 -8 69 -9 2 -13 -8 -13 -32z"/>
<path d="M894 1085 c-31 -47 -10 -145 31 -145 40 0 63 92 34 139 -23 37 -43
39 -65 6z m56 -58 c0 -10 -5 -28 -11 -39 -11 -21 -12 -21 -25 -3 -17 23 -17
35 -3 72 10 27 11 27 25 9 8 -11 14 -28 14 -39z"/>
</g>
</svg>
